<svg width="88" height="88" viewBox="0 0 88 88" fill="none" xmlns="http://www.w3.org/2000/svg">
<mask id="mask0_318_27" style="mask-type:luminance" maskUnits="userSpaceOnUse" x="35" y="47" width="17" height="32">
<path d="M35.8644 47.6012H51.5682V78.9192H35.8644V47.6012Z" fill="white"/>
</mask>
<g mask="url(#mask0_318_27)">
<path d="M48.7463 60.4755C45.6383 53.8563 44.6159 49.315 44.4114 48.3296C44.391 48.3296 44.3705 48.3296 44.3501 48.3296H44.3296C44.1251 49.315 43.1028 53.8777 39.9947 60.4755C36.4573 67.9729 37.1321 78.9192 44.3705 78.9192C51.609 78.9192 52.2837 67.9729 48.7463 60.4755Z" fill="#1E1E1E"/>
</g>
<mask id="mask1_318_27" style="mask-type:luminance" maskUnits="userSpaceOnUse" x="35" y="9" width="17" height="34">
<path d="M35.8644 9H51.5682V42.1174H35.8644V9Z" fill="white"/>
</mask>
<g mask="url(#mask1_318_27)">
<path d="M39.9947 27.4223C43.1028 34.0415 44.1251 38.5828 44.3296 39.5682C44.3501 39.5682 44.3705 39.5682 44.391 39.5682H44.4114C44.6159 38.5828 45.6383 34.0415 48.7463 27.4223C52.2837 19.9249 51.609 8.99998 44.3705 8.99998C37.1321 8.99998 36.4573 19.9249 39.9947 27.4223Z" fill="#1E1E1E"/>
</g>
<path d="M60.535 38.8207C54.2598 42.1913 49.9342 43.3 49 43.5218C49.0203 43.544 49.0203 43.5661 49.0203 43.5661C49.0203 43.5883 49.0203 43.5883 49.0203 43.5883C49.9545 43.8101 54.2598 44.9188 60.535 48.3116C67.6225 52.1479 78 51.4161 78 43.5661C78 35.7162 67.6225 34.9844 60.535 38.8207Z" fill="#1E1E1E"/>
<mask id="mask2_318_27" style="mask-type:luminance" maskUnits="userSpaceOnUse" x="11" y="36" width="31" height="18">
<path d="M11 36.6335H41.0989V53.0851H11V36.6335Z" fill="white"/>
</mask>
<g mask="url(#mask2_318_27)">
<path d="M28.6054 48.5437C34.9033 45.2663 39.2586 44.1952 40.1992 43.981C40.1992 43.981 40.1788 43.9596 40.1788 43.9381C40.1788 43.9167 40.1992 43.9167 40.1992 43.9167C39.2382 43.7025 34.9033 42.6314 28.6054 39.3754C21.4487 35.6695 11 36.3764 11 43.9595C11 51.5427 21.4487 52.2496 28.6054 48.5437Z" fill="#1E1E1E"/>
</g>
<path d="M55.5867 50.6873C50.5242 48.874 47.6425 46.9989 47.0389 46.5661C47.0389 46.5867 47.0195 46.5867 47.0195 46.6073C47 46.6073 47 46.6073 47 46.6073C47.3894 47.2667 49.1807 50.2958 50.8942 55.6534C52.8218 61.7115 58.7799 67.2545 62.6547 63.1539C66.5488 59.0327 61.3112 52.7273 55.5867 50.6873Z" fill="#1E1E1E"/>
<path d="M33.4133 38.9847C38.4758 41.0005 41.3575 43.108 41.9611 43.5661C41.9611 43.5661 41.9805 43.5432 41.9805 43.5203C42 43.5203 42 43.5203 42 43.5203C41.5911 42.8102 39.8193 39.4199 38.1058 33.4869C36.1782 26.7292 30.2201 20.5671 26.3453 25.1486C22.4512 29.7072 27.6888 36.7168 33.4133 38.9847Z" fill="#1E1E1E"/>
<path d="M50.8942 33.4869C49.1807 39.4199 47.3894 42.8102 47 43.5203C47 43.5432 47.0195 43.5432 47.0389 43.5661C47.662 43.108 50.5242 41.0005 55.5867 38.9847C61.3112 36.7168 66.5488 29.7072 62.6547 25.1486C58.7799 20.5671 52.8218 26.7292 50.8942 33.4869Z" fill="#1E1E1E"/>
<path d="M38.1058 55.6534C39.8193 50.2958 41.6106 47.2667 42 46.6073C41.9805 46.6073 41.9805 46.5867 41.9611 46.5867V46.5661C41.338 46.9989 38.4758 48.874 33.4133 50.6873C27.6888 52.7273 22.4512 59.0327 26.3453 63.1539C30.2201 67.2545 36.1782 61.7115 38.1058 55.6534Z" fill="#1E1E1E"/>
</svg>
