<svg width="500" height="500" viewBox="0 0 500 500" fill="none" xmlns="http://www.w3.org/2000/svg">
<path d="M67.6896 349C67.6896 339.592 67.6613 330.439 67.6329 321.513C67.5904 312.559 67.2079 304.369 66.4995 296.917C65.8194 289.478 64.4734 283.315 62.4756 278.441H137.966V326.841C134.296 323.553 129.323 321.442 123.06 320.493C116.826 319.558 110.224 319.076 103.281 319.076H79.7045C78.1885 319.076 77.4376 319.841 77.4376 321.343C77.4376 325.764 77.3526 330.269 77.2109 334.832C77.0975 339.366 77.1684 343.9 77.4376 348.433C77.5509 349.539 77.7493 350.12 78.061 350.19C78.401 350.233 78.8119 349.737 79.3078 348.717C81.7165 343.545 85.3153 339.111 90.0759 335.398C94.8365 331.658 100.731 329.788 107.758 329.788C112.859 329.788 117.563 330.921 121.87 333.188C126.206 335.427 129.691 338.544 132.298 342.539C134.934 346.549 136.265 351.267 136.265 356.708C136.265 362.191 134.934 366.853 132.298 370.706C129.691 374.56 126.418 377.507 122.494 379.548C118.597 381.56 114.63 382.551 110.592 382.551C107.872 382.551 105.151 382.041 102.431 381.021C99.7105 379.973 97.4152 378.57 95.5733 376.827C93.7172 375.099 92.7963 373.186 92.7963 371.103C97.2169 371.103 100.461 369.743 102.544 367.023C104.613 364.302 105.661 361.341 105.661 358.125C105.661 355.334 104.726 352.783 102.884 350.474C101.071 348.178 98.4637 347.017 95.0632 347.017C91.5069 347.017 88.6874 347.98 86.6188 349.907C84.536 351.834 83.0483 354.158 82.1415 356.878C81.2631 359.598 80.838 362.234 80.838 364.756C80.838 369.941 81.9432 375.184 84.1818 380.511C86.4488 385.81 89.3391 390.925 92.8529 395.87C96.3951 400.829 100.121 405.32 104.018 409.358C107.942 413.41 111.555 416.783 114.843 419.503H62.4756C64.4734 414.629 65.8194 408.48 66.4995 401.027C67.2079 393.589 67.5904 385.385 67.6329 376.431C67.6613 367.448 67.6896 358.295 67.6896 349Z" fill="#1E1E1E"/>
<path d="M193.813 419.503H145.696C147.694 414.629 149.04 408.48 149.72 401.027C150.429 393.589 150.811 385.385 150.854 376.431C150.882 367.448 150.91 358.295 150.91 349C150.91 339.592 150.882 330.439 150.854 321.513C150.811 312.559 150.429 304.369 149.72 296.917C149.04 289.478 147.694 283.315 145.696 278.441H198.063C194.578 282.493 191.036 287.381 187.408 293.119C183.781 298.872 180.268 305.12 176.867 311.879C173.495 318.651 170.435 325.65 167.686 332.905C164.966 340.131 162.755 347.286 161.055 354.384C159.383 361.497 158.462 368.199 158.278 374.504C158.278 376.02 159.029 376.771 160.545 376.771L200.897 376.884C206.026 376.884 209.795 376.756 212.175 376.487C214.584 376.19 215.802 374.957 215.802 372.803C215.802 371.599 214.867 370.522 213.025 369.573C211.212 368.638 208.86 367.646 205.998 366.626C203.121 365.577 200.075 364.331 196.873 362.885C193.699 361.412 190.667 359.598 187.805 357.445C184.929 355.291 182.563 352.571 180.721 349.284C178.907 345.968 178.001 341.958 178.001 337.269C178.001 333.231 179.077 329.674 181.231 326.614C183.413 323.553 186.275 321.159 189.789 319.416C193.303 317.688 197.1 316.809 201.18 316.809C205.856 316.809 209.922 318.226 213.365 321.06C216.794 323.865 219.344 326.996 221.016 330.468C218.098 330.85 215.604 332.097 213.535 334.208C211.495 336.334 210.475 339.281 210.475 343.049C210.475 347.172 211.056 350.757 212.232 353.817C213.394 356.878 214.867 359.655 216.652 362.149C218.466 364.642 220.237 367.235 221.98 369.913C223.708 372.605 225.168 375.637 226.344 379.038C227.505 382.41 228.101 386.49 228.101 391.279C228.101 396.465 226.868 401.197 224.417 405.504C221.951 409.783 218.197 413.184 213.139 415.706C208.066 418.242 201.634 419.503 193.813 419.503Z" fill="#1E1E1E"/>
<path d="M278.435 421.6C267.624 421.6 258.995 418.865 252.535 413.382C246.102 407.871 241.483 399.709 238.649 388.899C235.844 378.102 234.456 364.798 234.456 349C234.456 333.103 235.844 319.756 238.649 308.988C241.483 298.22 246.102 290.102 252.535 284.618C258.995 279.107 267.624 276.344 278.435 276.344C289.345 276.344 298.001 279.107 304.392 284.618C310.767 290.102 315.386 298.22 318.22 308.988C321.054 319.756 322.471 333.103 322.471 349C322.471 364.798 321.054 378.102 318.22 388.899C315.386 399.709 310.767 407.871 304.392 413.382C298.001 418.865 289.345 421.6 278.435 421.6ZM278.605 319.076C270.515 319.076 263.784 320.422 258.429 323.1C253.059 325.792 249.049 329.391 246.414 333.925C243.807 338.431 242.503 343.389 242.503 348.83C242.503 354.271 243.807 359.258 246.414 363.792C249.049 368.298 253.059 371.882 258.429 374.56C263.784 377.252 270.515 378.584 278.605 378.584C286.681 378.584 293.368 377.252 298.667 374.56C303.995 371.882 307.962 368.298 310.569 363.792C313.204 359.258 314.536 354.271 314.536 348.83C314.536 343.389 313.204 338.431 310.569 333.925C307.962 329.391 303.995 325.792 298.667 323.1C293.368 320.422 286.681 319.076 278.605 319.076Z" fill="#1E1E1E"/>
<path d="M340.06 319.076C338.274 310.504 336.617 303.59 335.072 298.333C333.514 293.091 332.083 288.926 330.765 285.865C329.433 282.805 328.073 280.339 326.685 278.441H373.101C371.882 280.141 371.23 282.521 371.117 285.582C371.032 288.642 371.486 292.864 372.477 298.22C373.455 303.547 374.829 310.504 376.615 319.076L390.16 376.204C390.457 377.224 391.208 377.734 392.427 377.734C393.064 377.734 393.688 377.536 394.297 377.111C394.934 376.7 395.388 376.062 395.657 375.184C396.975 370.961 397.527 366.215 397.301 360.958C397.074 355.716 396.394 350.162 395.26 344.296C394.127 338.402 392.908 332.451 391.633 326.444C390.386 320.408 389.31 314.471 388.403 308.648C387.496 302.797 387.156 297.313 387.383 292.213C387.638 287.084 388.757 282.493 390.726 278.441H425.014C423.682 282.677 423.116 288.005 423.314 294.423C423.498 300.813 424.221 307.741 425.468 315.222C426.743 322.675 428.301 330.184 430.115 337.779C431.957 345.345 433.87 352.542 435.839 359.372C437.837 366.172 439.693 372.067 441.393 377.054C441.847 378.187 442.541 378.754 443.49 378.754C444.425 378.754 445.034 378.23 445.304 377.167C446.735 372.945 447.316 368.184 447.061 362.885C446.834 357.558 446.168 351.919 445.077 345.94C444.014 339.975 442.824 333.897 441.506 327.691C440.175 321.457 439.069 315.364 438.163 309.385C437.284 303.42 436.973 297.809 437.199 292.553C437.426 287.31 438.531 282.606 440.543 278.441L487.348 272.025C480.547 278.441 476.466 285.287 475.106 288.347C473.746 291.408 473.329 293.091 471.827 298.333C470.311 303.59 468.625 310.504 466.783 319.076L442.923 419.503H413.849L404.272 379.037C403.705 376.856 403.138 376.856 402.571 379.037L392.993 419.503H363.92L340.06 319.076Z" fill="#1E1E1E"/>
<path d="M29.0425 135.808C26.5064 123.651 24.126 113.818 21.9016 106.337C19.7055 98.8278 17.6652 92.8911 15.7808 88.5414C13.9247 84.2058 11.9978 80.692 10 78H76.0254C74.2827 80.4228 73.3334 83.8091 73.1917 88.1447C73.0784 92.4944 73.716 98.4877 75.1186 106.11C76.5072 113.747 78.4908 123.651 81.0694 135.808L100.282 217.078C100.693 218.552 101.77 219.289 103.512 219.289C104.448 219.289 105.354 218.991 106.233 218.382C107.097 217.787 107.735 216.88 108.16 215.662C110.002 209.654 110.767 202.91 110.427 195.429C110.087 187.92 109.095 179.985 107.48 171.626C105.893 163.28 104.193 154.822 102.379 146.236C100.594 137.664 99.0635 129.233 97.7883 120.959C96.5415 112.656 96.0598 104.849 96.3715 97.5526C96.7115 90.27 98.2984 83.7524 101.132 78H149.872C148.016 84.0075 147.222 91.5735 147.492 100.67C147.747 109.78 148.767 119.656 150.552 130.31C152.366 140.937 154.576 151.62 157.183 162.388C159.79 173.156 162.482 183.4 165.287 193.105C168.121 202.782 170.742 211.17 173.165 218.269C173.845 219.898 174.837 220.706 176.169 220.706C177.486 220.706 178.351 219.969 178.776 218.495C180.773 212.46 181.609 205.659 181.269 198.093C180.929 190.541 179.98 182.536 178.436 174.063C176.92 165.562 175.219 156.89 173.335 148.049C171.479 139.208 169.906 130.537 168.631 122.036C167.384 113.535 166.902 105.544 167.214 98.0627C167.554 90.5817 169.141 83.8941 171.975 78H228.366C226.467 80.692 224.54 84.2058 222.585 88.5414C220.658 92.8911 218.618 98.8278 216.464 106.337C214.339 113.818 211.944 123.651 209.266 135.808L197.63 278.683H145.805L120.401 221.102C119.565 218.014 118.758 218.014 117.964 221.102L104.306 278.683H62.9904L29.0425 135.808Z" fill="#1E1E1E"/>
<path d="M231.332 278.683C234.123 271.741 236.036 262.97 237.056 252.386C238.076 241.817 238.6 230.142 238.643 217.362C238.713 204.596 238.756 191.575 238.756 178.313C238.756 164.938 238.713 151.903 238.643 139.208C238.6 126.513 238.076 114.881 237.056 104.297C236.036 93.7271 234.123 84.9568 231.332 78H348.534V154.68C342.101 157.486 335.952 158.874 330.058 158.874C322.421 158.874 316.088 156.706 311.072 152.357C306.085 148.021 303.591 142.155 303.591 134.788C303.591 129.318 304.725 125.082 306.992 122.093C309.259 119.075 312.092 116.737 315.493 115.065C318.921 113.365 322.308 111.99 325.637 110.928C328.995 109.837 331.815 108.533 334.082 107.017C336.349 105.473 337.482 103.305 337.482 100.5C337.482 96.8725 336.037 94.0671 333.175 92.0552C330.299 90.0574 326.261 89.0515 321.047 89.0515C311.256 89.0515 302.373 91.9702 294.41 97.7793C286.476 103.603 279.59 111.367 273.781 121.072C267.957 130.75 263.239 141.475 259.612 153.263C258.819 155.955 259.626 156.48 262.049 154.85C264.727 153.122 267.603 151.761 270.663 150.77C273.752 149.75 277.181 149.239 280.921 149.239C286.66 149.126 292.001 150.345 296.96 152.867C301.905 155.403 305.872 158.973 308.862 163.578C311.88 168.197 313.396 173.581 313.396 179.73C313.396 185.893 311.88 191.178 308.862 195.599C305.872 200.02 302.132 203.363 297.64 205.63C293.177 207.897 288.657 209.031 284.095 209.031C281.035 209.031 277.946 208.45 274.857 207.274C271.797 206.069 269.218 204.497 267.15 202.57C265.067 200.615 264.033 198.418 264.033 195.996C268.977 195.996 272.619 194.465 274.971 191.405C277.308 188.316 278.484 184.973 278.484 181.374C278.626 178.172 277.804 175.253 275.991 172.646C274.177 170.039 271.315 168.735 267.433 168.735C263.154 168.735 259.782 170.421 257.288 173.779C254.823 177.109 253.038 181.289 251.904 186.304C250.771 191.292 250.034 196.378 249.694 201.55C249.354 206.693 249.184 211.057 249.184 214.641C249.184 216.795 250.261 217.872 252.414 217.872C256.948 217.872 260.575 217.872 263.296 217.872C266.044 217.872 268.807 217.914 271.57 217.985C274.319 218.07 277.918 218.099 282.338 218.099C289.394 218.099 296.974 217.461 305.065 216.172C313.183 214.896 321.16 212.587 328.981 209.257C336.802 205.899 343.716 201.266 349.724 195.372V278.683H231.332Z" fill="#1E1E1E"/>
<path d="M360.763 78H421.801C427.27 78 433.15 78.5667 439.426 79.7002C445.731 80.8337 451.923 82.7465 458.016 85.4243C464.094 88.1163 469.605 91.7435 474.564 96.3058C479.509 100.84 483.476 106.592 486.466 113.535C489.484 120.491 491 128.78 491 138.415C491 146.321 490.036 154.283 488.11 162.331C486.183 170.351 482.896 177.69 478.248 184.377C473.629 191.065 467.438 196.421 459.659 200.416C451.909 204.426 442.218 206.424 430.585 206.424C422.566 206.424 415.751 205.163 410.126 202.627C404.487 200.105 399.84 197.172 396.184 193.842C392.514 190.484 389.525 187.537 387.23 185.001C384.963 182.436 383.092 181.147 381.619 181.147C380.287 181.147 380.23 182.55 381.449 185.341C383.971 190.98 387.711 196.562 392.67 202.116C397.615 207.671 403.906 212.261 411.543 215.888C419.165 219.487 428.205 221.272 438.633 221.272C442.26 221.272 446.426 221.088 451.158 220.706C455.919 220.295 460.651 219.615 465.383 218.665C470.144 217.73 474.593 216.427 478.758 214.755C482.91 213.097 486.197 211.057 488.62 208.634V270.636C488.195 272.534 484.628 274.745 481.907 277.466C478.649 279.138 475.726 278.981 470.824 280.043C465.95 281.134 460.977 281.687 455.919 281.687C446.397 281.687 438.151 279.888 431.209 276.303C424.252 272.676 418.301 268 413.356 262.248C408.397 256.467 404.246 250.346 400.888 243.885C397.558 237.396 394.824 231.275 392.67 225.523C390.517 219.742 388.703 215.067 387.23 211.468C385.784 207.841 384.467 206.027 383.262 206.027C382.157 206.027 381.236 206.466 380.485 207.33C379.763 208.209 379.409 210.108 379.409 213.055C379.409 224.956 380.145 236.291 381.619 247.059C383.092 257.827 387.035 268.369 390.775 278.683H360.763C363.554 271.741 365.467 262.97 366.487 252.386C367.507 241.817 368.031 230.142 368.074 217.362C368.145 204.596 368.187 191.575 368.187 178.313C368.187 164.938 368.145 151.903 368.074 139.208C368.031 126.513 367.507 114.881 366.487 104.297C365.467 93.7271 363.554 84.9568 360.763 78ZM384.849 122.546C383.106 122.546 381.69 123.254 380.599 124.643C379.536 126.046 379.012 127.689 379.012 129.574C379.012 134.674 381.18 139.491 385.529 144.025C389.907 148.559 395.972 152.243 403.722 155.077C411.458 157.882 420.554 159.271 430.982 159.271C439.441 159.271 447.375 158.647 454.785 157.401C462.224 156.125 468.245 154 472.864 151.053C477.469 148.106 479.778 144.238 479.778 139.435C479.778 136.346 478.489 133.697 475.925 131.5C473.388 129.276 470.597 128.157 467.537 128.157C463.641 128.157 460.254 128.539 457.392 129.29C454.516 130.013 451.611 130.92 448.664 132.01C445.717 133.073 442.161 133.98 438.01 134.731C433.887 135.453 428.616 135.808 422.198 135.808C416.983 135.808 412.393 135.156 408.426 133.824C404.487 132.464 401.072 130.92 398.168 129.177C395.291 127.448 392.784 125.918 390.63 124.586C388.505 123.226 386.578 122.546 384.849 122.546Z" fill="#1E1E1E"/>
<mask id="mask0_362_9" style="mask-type:luminance" maskUnits="userSpaceOnUse" x="271" y="353" width="12" height="22">
<path d="M271.986 353.636H282.868V374.35H271.986V353.636Z" fill="white"/>
</mask>
<g mask="url(#mask0_362_9)">
<path d="M280.912 362.151C278.759 357.773 278.05 354.769 277.909 354.118C277.894 354.118 277.88 354.118 277.866 354.118H277.852C277.71 354.769 277.002 357.787 274.848 362.151C272.397 367.11 272.865 374.35 277.88 374.35C282.896 374.35 283.364 367.11 280.912 362.151Z" fill="#1E1E1E"/>
</g>
<mask id="mask1_362_9" style="mask-type:luminance" maskUnits="userSpaceOnUse" x="271" y="328" width="12" height="23">
<path d="M271.986 328.104H282.868V350.009H271.986V328.104Z" fill="white"/>
</mask>
<g mask="url(#mask1_362_9)">
<path d="M274.848 340.289C277.002 344.667 277.71 347.671 277.852 348.323C277.866 348.323 277.88 348.323 277.894 348.323H277.909C278.05 347.671 278.759 344.667 280.912 340.289C283.364 335.33 282.896 328.104 277.88 328.104C272.865 328.104 272.397 335.33 274.848 340.289Z" fill="#1E1E1E"/>
</g>
<path d="M289.093 347.568C284.75 349.842 281.756 350.59 281.109 350.74C281.123 350.755 281.123 350.77 281.123 350.77C281.123 350.785 281.123 350.785 281.123 350.785C281.77 350.935 284.75 351.683 289.093 353.972C294 356.561 301.183 356.067 301.183 350.77C301.183 345.473 294 344.979 289.093 347.568Z" fill="#1E1E1E"/>
<mask id="mask2_362_9" style="mask-type:luminance" maskUnits="userSpaceOnUse" x="254" y="346" width="22" height="12">
<path d="M254.757 346.382H275.613V357.263H254.757V346.382Z" fill="white"/>
</mask>
<g mask="url(#mask2_362_9)">
<path d="M266.956 354.259C271.32 352.091 274.338 351.383 274.99 351.241C274.99 351.241 274.976 351.227 274.976 351.213C274.976 351.199 274.99 351.199 274.99 351.199C274.324 351.057 271.32 350.349 266.956 348.195C261.997 345.744 254.757 346.211 254.757 351.227C254.757 356.243 261.997 356.71 266.956 354.259Z" fill="#1E1E1E"/>
</g>
<path d="M285.892 355.835C282.376 354.646 280.374 353.416 279.955 353.132C279.955 353.145 279.941 353.145 279.941 353.159C279.928 353.159 279.928 353.159 279.928 353.159C280.198 353.591 281.442 355.578 282.633 359.093C283.972 363.067 288.11 366.704 290.801 364.013C293.506 361.31 289.868 357.173 285.892 355.835Z" fill="#1E1E1E"/>
<path d="M270.421 347.795C273.937 349.104 275.939 350.472 276.358 350.77C276.358 350.77 276.372 350.755 276.372 350.74C276.385 350.74 276.385 350.74 276.385 350.74C276.101 350.279 274.871 348.077 273.68 344.224C272.342 339.835 268.203 335.833 265.512 338.809C262.807 341.769 266.445 346.322 270.421 347.795Z" fill="#1E1E1E"/>
<path d="M282.633 344.224C281.442 348.077 280.198 350.279 279.928 350.74C279.928 350.755 279.941 350.755 279.955 350.77C280.388 350.472 282.376 349.104 285.892 347.795C289.868 346.322 293.506 341.769 290.801 338.809C288.11 335.833 283.972 339.835 282.633 344.224Z" fill="#1E1E1E"/>
<path d="M273.68 359.093C274.871 355.578 276.115 353.591 276.385 353.159C276.372 353.159 276.372 353.145 276.358 353.145V353.132C275.926 353.416 273.937 354.646 270.421 355.835C266.445 357.173 262.807 361.31 265.512 364.013C268.203 366.704 272.342 363.067 273.68 359.093Z" fill="#1E1E1E"/>
</svg>
